<?xml version="1.0" encoding="UTF-8"?>
<svg width="93px" height="33px" viewBox="0 0 93 33" version="1.1" xmlns="http://www.w3.org/2000/svg" xmlns:xlink="http://www.w3.org/1999/xlink">
    <title>halOS</title>
    <defs>
        <radialGradient cx="50.3935692%" cy="1.59019631%" fx="50.3935692%" fy="1.59019631%" r="24.8233676%" id="radialGradient-1">
            <stop stop-color="#F5F4F1" offset="0%"></stop>
            <stop stop-color="#F5F4F1" stop-opacity="0" offset="100%"></stop>
        </radialGradient>
        <radialGradient cx="87.3896886%" cy="17.9235828%" fx="87.3896886%" fy="17.9235828%" r="14.0713706%" id="radialGradient-2">
            <stop stop-color="#F5F4F1" offset="0%"></stop>
            <stop stop-color="#F5F4F1" stop-opacity="0" offset="100%"></stop>
        </radialGradient>
        <radialGradient cx="12.2167328%" cy="18.3171617%" fx="12.2167328%" fy="18.3171617%" r="17.1295927%" id="radialGradient-3">
            <stop stop-color="#F5F4F1" offset="0%"></stop>
            <stop stop-color="#F5F4F1" stop-opacity="0" offset="100%"></stop>
        </radialGradient>
        <radialGradient cx="5.32915394%" cy="68.1044857%" fx="5.32915394%" fy="68.1044857%" r="62.6725259%" id="radialGradient-4">
            <stop stop-color="#0E191C" offset="0%"></stop>
            <stop stop-color="#0E191C" stop-opacity="0" offset="100%"></stop>
        </radialGradient>
        <radialGradient cx="51.574301%" cy="98.8033849%" fx="51.574301%" fy="98.8033849%" r="29.7312489%" id="radialGradient-5">
            <stop stop-color="#424A4B" offset="0%"></stop>
            <stop stop-color="#424A4B" stop-opacity="0" offset="100%"></stop>
        </radialGradient>
        <radialGradient cx="95.4579728%" cy="63.9719378%" fx="95.4579728%" fy="63.9719378%" r="34.1669177%" id="radialGradient-6">
            <stop stop-color="#0A1314" offset="0%"></stop>
            <stop stop-color="#0A1314" stop-opacity="0" offset="100%"></stop>
        </radialGradient>
        <radialGradient cx="97.1645558%" cy="48.558287%" fx="97.1645558%" fy="48.558287%" r="36.0053818%" id="radialGradient-7">
            <stop stop-color="#444544" offset="0%"></stop>
            <stop stop-color="#706062" stop-opacity="0" offset="100%"></stop>
        </radialGradient>
        <radialGradient cx="87.6904657%" cy="80.0699811%" fx="87.6904657%" fy="80.0699811%" r="9.80560989%" id="radialGradient-8">
            <stop stop-color="#CFCDC7" offset="0%"></stop>
            <stop stop-color="#CFCDC7" stop-opacity="0" offset="100%"></stop>
        </radialGradient>
        <radialGradient cx="51.6476718%" cy="100.459898%" fx="51.6476718%" fy="100.459898%" r="14.0051987%" id="radialGradient-9">
            <stop stop-color="#E0D8D4" offset="0%"></stop>
            <stop stop-color="#E0D8D4" stop-opacity="0.45490196" offset="67.65%"></stop>
            <stop stop-color="#E0D8D4" stop-opacity="0" offset="100%"></stop>
        </radialGradient>
        <radialGradient cx="12.3095474%" cy="79.0401825%" fx="12.3095474%" fy="79.0401825%" r="5.11591238%" id="radialGradient-10">
            <stop stop-color="#B1ABA9" offset="0%"></stop>
            <stop stop-color="#B1ABA9" stop-opacity="0" offset="100%"></stop>
        </radialGradient>
        <radialGradient cx="2.21757073%" cy="51.8536298%" fx="2.21757073%" fy="51.8536298%" r="34.6398655%" id="radialGradient-11">
            <stop stop-color="#473E3E" offset="0%"></stop>
            <stop stop-color="#473E3E" stop-opacity="0" offset="100%"></stop>
        </radialGradient>
        <radialGradient cx="51.8536286%" cy="3.24736294%" fx="51.8536286%" fy="3.24736294%" r="25.168296%" id="radialGradient-12">
            <stop stop-color="#B9B5B4" offset="0%"></stop>
            <stop stop-color="#9D9290" stop-opacity="0" offset="100%"></stop>
        </radialGradient>
        <radialGradient cx="10.8678334%" cy="22.8134424%" fx="10.8678334%" fy="22.8134424%" r="7.08689681%" id="radialGradient-13">
            <stop stop-color="#626463" offset="0%"></stop>
            <stop stop-color="#626463" stop-opacity="0" offset="100%"></stop>
        </radialGradient>
        <radialGradient cx="50.0000017%" cy="50%" fx="50.0000017%" fy="50%" r="50.4320408%" gradientTransform="translate(0.500000,0.500000),scale(1.000000,0.999737),translate(-0.500000,-0.500000)" id="radialGradient-14">
            <stop stop-color="#EA1117" offset="0%"></stop>
            <stop stop-color="#CD0D14" offset="36.95%"></stop>
            <stop stop-color="#C10914" stop-opacity="0" offset="100%"></stop>
        </radialGradient>
        <radialGradient cx="50.0000017%" cy="50%" fx="50.0000017%" fy="50%" r="50.4320408%" gradientTransform="translate(0.500000,0.500000),scale(1.000000,0.999737),translate(-0.500000,-0.500000)" id="radialGradient-15">
            <stop stop-color="#EA1117" offset="0%"></stop>
            <stop stop-color="#D3070E" offset="36.95%"></stop>
            <stop stop-color="#C10914" stop-opacity="0" offset="100%"></stop>
        </radialGradient>
        <radialGradient cx="50%" cy="50%" fx="50%" fy="50%" r="50.8645533%" id="radialGradient-16">
            <stop stop-color="#EA1117" offset="0%"></stop>
            <stop stop-color="#EA1117" stop-opacity="0" offset="100%"></stop>
        </radialGradient>
        <radialGradient cx="50.0000061%" cy="49.9999979%" fx="50.0000061%" fy="49.9999979%" r="37.810944%" gradientTransform="translate(0.500000,0.500000),scale(1.000000,0.999370),translate(-0.500000,-0.500000)" id="radialGradient-17">
            <stop stop-color="#F8EE46" offset="0%"></stop>
            <stop stop-color="#D3321C" stop-opacity="0" offset="100%"></stop>
        </radialGradient>
        <linearGradient x1="62.8745016%" y1="12.3486155%" x2="70.2598827%" y2="-1.05624976%" id="linearGradient-18">
            <stop stop-color="#BEBBB6" offset="0%"></stop>
            <stop stop-color="#BEBBB6" stop-opacity="0" offset="100%"></stop>
        </linearGradient>
        <linearGradient x1="33.0564511%" y1="56.325261%" x2="145.714142%" y2="61.139519%" id="linearGradient-19">
            <stop stop-color="#FFFFFF" offset="0%"></stop>
            <stop stop-color="#FFFFFF" stop-opacity="0" offset="100%"></stop>
        </linearGradient>
        <linearGradient x1="56.9364854%" y1="46.6595825%" x2="3.44804904%" y2="41.7919991%" id="linearGradient-20">
            <stop stop-color="#EA3231" offset="0%"></stop>
            <stop stop-color="#EA3231" stop-opacity="0" offset="100%"></stop>
        </linearGradient>
        <linearGradient x1="40.2540492%" y1="30.553252%" x2="5.63528746%" y2="56.0876577%" id="linearGradient-21">
            <stop stop-color="#8F908A" offset="0%"></stop>
            <stop stop-color="#8F908A" stop-opacity="0" offset="100%"></stop>
        </linearGradient>
    </defs>
    <g id="Page-1" stroke="none" stroke-width="1" fill="none" fill-rule="evenodd">
        <g id="halos" transform="translate(0.277322, 0.959591)" fill-rule="nonzero">
            <g id="text" transform="translate(44.093853, 9.466499)" fill="#FFFFFF">
                <path d="M7.10764364e-15,12.7789847 L2.39824781,12.7789847 L2.39824781,6.45951418 C2.81837882,5.88183405 3.46608078,5.54923034 4.27133187,5.54923034 C5.42669213,5.54923034 6.16192139,6.30196506 6.16192139,7.47483077 L6.16192139,12.7789847 L8.5601692,12.7789847 L8.5601692,7.1247216 C8.5601692,4.97155021 7.07220523,3.48358624 4.95404475,3.48358624 C3.95623362,3.48358624 3.08096069,3.79868449 2.39824781,4.39387008 L2.39824781,0 L7.10764364e-15,0.525163755 L7.10764364e-15,12.7789847 Z" id="Path"></path>
                <path d="M13.286643,12.9365338 C14.3019596,12.9365338 15.159727,12.6914574 15.9124618,12.1312827 L15.9124618,12.7789847 L18.2756987,12.7789847 L18.2756987,6.86213973 C18.2756987,4.70896833 16.8577565,3.48358624 14.3894869,3.48358624 C13.059072,3.48358624 11.7636681,3.79868449 10.3282205,4.46389191 L11.2034934,6.23194322 C12.3588537,5.70677947 13.2166212,5.47920851 13.9868613,5.47920851 C15.2647598,5.47920851 15.9124618,6.02187772 15.9124618,7.07220523 L15.9124618,7.73741265 C15.2122434,7.49233623 14.4595087,7.36979802 13.6717631,7.36979802 C11.3435371,7.36979802 9.96060588,8.40262007 9.96060588,10.1356605 C9.96060588,11.798679 11.3085262,12.9365338 13.286643,12.9365338 Z M12.2363155,10.0831441 C12.2363155,9.38292575 12.8840174,8.94528929 13.9868613,8.94528929 C14.6870797,8.94528929 15.3172762,9.05032204 15.9124618,9.29539846 L15.9124618,10.6258133 C15.3697926,11.0284388 14.6870797,11.2209989 13.899334,11.2209989 C12.8840174,11.2209989 12.2363155,10.7833624 12.2363155,10.0831441 Z" id="Shape"></path>
                <polygon id="Path" points="20.0962663 12.7789847 22.4945142 12.7789847 22.4945142 0.122538209 20.0962663 0.525163755"></polygon>
                <path d="M30.5295196,12.9715447 C34.170655,12.9715447 37.0065392,10.1881768 37.0065392,6.65207422 C37.0065392,3.11597161 34.170655,0.332603711 30.5295196,0.332603711 C26.9058897,0.332603711 24.0525,3.11597161 24.0525,6.65207422 C24.0525,10.1881768 26.9058897,12.9715447 30.5295196,12.9715447 Z M30.5295196,10.6433188 C28.3413373,10.6433188 26.6608133,8.91027837 26.6608133,6.65207422 C26.6608133,4.37636462 28.3413373,2.66082969 30.5295196,2.66082969 C32.7352074,2.66082969 34.4157314,4.37636462 34.4157314,6.65207422 C34.4157314,8.91027837 32.7352074,10.6433188 30.5295196,10.6433188 Z" id="Shape"></path>
                <path d="M43.1334497,12.9540393 C46.2844322,12.9540393 48.3150654,11.4310644 48.3150654,9.03281658 C48.3150654,7.14222706 47.0896833,5.9868668 44.6389191,5.58424126 L42.3281986,5.19912117 C41.0678056,5.00656113 40.5776528,4.62144104 40.5776528,3.86870633 C40.5776528,3.02844432 41.4529257,2.48577511 42.8183515,2.48577511 C44.1487663,2.48577511 45.3741484,2.95842248 46.6870578,3.95623362 L48.0524835,2.0656441 C46.6870578,0.997811134 44.7789628,0.35010917 42.993406,0.35010917 C40.0174781,0.35010917 38.179405,1.76805131 38.179405,4.06126637 C38.179405,5.84682313 39.2647434,6.98467794 41.3653984,7.33478711 L43.7986571,7.75491811 C45.2516102,7.99999453 45.8117849,8.42012553 45.8117849,9.26038754 C45.8117849,10.2056823 44.8489846,10.8008679 43.3085043,10.8008679 C41.8380458,10.8008679 40.5951582,10.2581987 39.1597106,9.01531112 L37.7067576,10.8358788 C39.1772161,12.1837991 41.1553329,12.9540393 43.1334497,12.9540393 Z" id="Path"></path>
            </g>
            <g id="logo" transform="translate(-0.000000, -0.000000)">
                <g id="g4726">
                    <path d="M31.7699993,15.885 C31.7699993,21.5601639 28.7423356,26.8042316 23.8274996,29.6418135 C18.9126635,32.4793955 12.8573358,32.4793955 7.94249974,29.6418135 C3.02766369,26.8042316 -1.42152873e-14,21.5601639 -1.42152873e-14,15.885 C-1.42152873e-14,10.2098361 3.02766369,4.96576843 7.94249974,2.12818647 C12.8573358,-0.709395491 18.9126635,-0.709395491 23.8274996,2.12818647 C28.7423356,4.96576843 31.7699993,10.2098361 31.7699993,15.885 L31.7699993,15.885 Z" id="path4724" fill="#5D5F5F"></path>
                    <path d="M31.7699993,15.885 C31.7699993,21.5601639 28.7423356,26.8042316 23.8274996,29.6418135 C18.9126635,32.4793955 12.8573358,32.4793955 7.94249974,29.6418135 C3.02766369,26.8042316 -1.42152873e-14,21.5601639 -1.42152873e-14,15.885 C-1.42152873e-14,10.2098361 3.02766369,4.96576843 7.94249974,2.12818647 C12.8573358,-0.709395491 18.9126635,-0.709395491 23.8274996,2.12818647 C28.7423356,4.96576843 31.7699993,10.2098361 31.7699993,15.885 L31.7699993,15.885 Z" id="path4642" fill="url(#radialGradient-1)"></path>
                    <path d="M31.7699993,15.885 C31.7699993,21.5601639 28.7423356,26.8042316 23.8274996,29.6418135 C18.9126635,32.4793955 12.8573358,32.4793955 7.94249974,29.6418135 C3.02766369,26.8042316 -1.42152873e-14,21.5601639 -1.42152873e-14,15.885 C-1.42152873e-14,10.2098361 3.02766369,4.96576843 7.94249974,2.12818647 C12.8573358,-0.709395491 18.9126635,-0.709395491 23.8274996,2.12818647 C28.7423356,4.96576843 31.7699993,10.2098361 31.7699993,15.885 L31.7699993,15.885 Z" id="path4670" fill="url(#radialGradient-2)"></path>
                    <path d="M31.7699993,15.885 C31.7699993,21.5601639 28.7423356,26.8042316 23.8274996,29.6418135 C18.9126635,32.4793955 12.8573358,32.4793955 7.94249974,29.6418135 C3.02766369,26.8042316 -1.42152873e-14,21.5601639 -1.42152873e-14,15.885 C-1.42152873e-14,10.2098361 3.02766369,4.96576843 7.94249974,2.12818647 C12.8573358,-0.709395491 18.9126635,-0.709395491 23.8274996,2.12818647 C28.7423356,4.96576843 31.7699993,10.2098361 31.7699993,15.885 L31.7699993,15.885 Z" id="path4674" fill="url(#radialGradient-3)"></path>
                    <path d="M31.7699993,15.885 C31.7699993,21.5601639 28.7423356,26.8042316 23.8274996,29.6418135 C18.9126635,32.4793955 12.8573358,32.4793955 7.94249974,29.6418135 C3.02766369,26.8042316 -1.42152873e-14,21.5601639 -1.42152873e-14,15.885 C-1.42152873e-14,10.2098361 3.02766369,4.96576843 7.94249974,2.12818647 C12.8573358,-0.709395491 18.9126635,-0.709395491 23.8274996,2.12818647 C28.7423356,4.96576843 31.7699993,10.2098361 31.7699993,15.885 L31.7699993,15.885 Z" id="path4678" fill="url(#radialGradient-4)"></path>
                    <path d="M31.7699993,15.885 C31.7699993,21.5601639 28.7423356,26.8042316 23.8274996,29.6418135 C18.9126635,32.4793955 12.8573358,32.4793955 7.94249974,29.6418135 C3.02766369,26.8042316 -1.42152873e-14,21.5601639 -1.42152873e-14,15.885 C-1.42152873e-14,10.2098361 3.02766369,4.96576843 7.94249974,2.12818647 C12.8573358,-0.709395491 18.9126635,-0.709395491 23.8274996,2.12818647 C28.7423356,4.96576843 31.7699993,10.2098361 31.7699993,15.885 L31.7699993,15.885 Z" id="path4688" fill="url(#radialGradient-5)"></path>
                    <path d="M31.7699993,15.885 C31.7699993,21.5601639 28.7423356,26.8042316 23.8274996,29.6418135 C18.9126635,32.4793955 12.8573358,32.4793955 7.94249974,29.6418135 C3.02766369,26.8042316 -1.42152873e-14,21.5601639 -1.42152873e-14,15.885 C-1.42152873e-14,10.2098361 3.02766369,4.96576843 7.94249974,2.12818647 C12.8573358,-0.709395491 18.9126635,-0.709395491 23.8274996,2.12818647 C28.7423356,4.96576843 31.7699993,10.2098361 31.7699993,15.885 L31.7699993,15.885 Z" id="path4706" fill="url(#radialGradient-6)"></path>
                </g>
                <g id="g4924" transform="translate(0.707327, 0.707327)">
                    <path d="M30.3553446,15.1776726 C30.3553446,20.6001328 27.4624968,25.6106926 22.7665086,28.3219227 C18.0705204,31.0331528 12.2848243,31.0331528 7.58883606,28.3219227 C2.89284786,25.6106926 1.77691091e-15,20.6001328 1.77691091e-15,15.1776726 C1.77691091e-15,9.75521251 2.89284786,4.74465267 7.58883606,2.03342257 C12.2848243,-0.677807524 18.0705204,-0.677807524 22.7665086,2.03342257 C27.4624968,4.74465267 30.3553446,9.75521251 30.3553446,15.1776726 L30.3553446,15.1776726 Z" id="path3766" fill="#706062"></path>
                    <path d="M30.3553446,15.1776726 C30.3553446,20.6001328 27.4624968,25.6106926 22.7665086,28.3219227 C18.0705204,31.0331528 12.2848243,31.0331528 7.58883606,28.3219227 C2.89284786,25.6106926 1.77691091e-15,20.6001328 1.77691091e-15,15.1776726 C1.77691091e-15,9.75521251 2.89284786,4.74465267 7.58883606,2.03342257 C12.2848243,-0.677807524 18.0705204,-0.677807524 22.7665086,2.03342257 C27.4624968,4.74465267 30.3553446,9.75521251 30.3553446,15.1776726 L30.3553446,15.1776726 Z" id="path4556" fill="#767676"></path>
                    <path d="M30.3553446,15.1776726 C30.3553446,20.6001328 27.4624968,25.6106926 22.7665086,28.3219227 C18.0705204,31.0331528 12.2848243,31.0331528 7.58883606,28.3219227 C2.89284786,25.6106926 1.77691091e-15,20.6001328 1.77691091e-15,15.1776726 C1.77691091e-15,9.75521251 2.89284786,4.74465267 7.58883606,2.03342257 C12.2848243,-0.677807524 18.0705204,-0.677807524 22.7665086,2.03342257 C27.4624968,4.74465267 30.3553446,9.75521251 30.3553446,15.1776726 L30.3553446,15.1776726 Z" id="path4544" fill="url(#radialGradient-7)"></path>
                    <path d="M30.3553446,15.1776726 C30.3553446,20.6001328 27.4624968,25.6106926 22.7665086,28.3219227 C18.0705204,31.0331528 12.2848243,31.0331528 7.58883606,28.3219227 C2.89284786,25.6106926 1.77691091e-15,20.6001328 1.77691091e-15,15.1776726 C1.77691091e-15,9.75521251 2.89284786,4.74465267 7.58883606,2.03342257 C12.2848243,-0.677807524 18.0705204,-0.677807524 22.7665086,2.03342257 C27.4624968,4.74465267 30.3553446,9.75521251 30.3553446,15.1776726 L30.3553446,15.1776726 Z" id="path4560" fill="url(#radialGradient-8)"></path>
                    <path d="M30.3553446,15.1776726 C30.3553446,20.6001328 27.4624968,25.6106926 22.7665086,28.3219227 C18.0705204,31.0331528 12.2848243,31.0331528 7.58883606,28.3219227 C2.89284786,25.6106926 1.77691091e-15,20.6001328 1.77691091e-15,15.1776726 C1.77691091e-15,9.75521251 2.89284786,4.74465267 7.58883606,2.03342257 C12.2848243,-0.677807524 18.0705204,-0.677807524 22.7665086,2.03342257 C27.4624968,4.74465267 30.3553446,9.75521251 30.3553446,15.1776726 L30.3553446,15.1776726 Z" id="path4570" fill="url(#radialGradient-9)"></path>
                    <path d="M30.3553446,15.1776726 C30.3553446,20.6001328 27.4624968,25.6106926 22.7665086,28.3219227 C18.0705204,31.0331528 12.2848243,31.0331528 7.58883606,28.3219227 C2.89284786,25.6106926 1.77691091e-15,20.6001328 1.77691091e-15,15.1776726 C1.77691091e-15,9.75521251 2.89284786,4.74465267 7.58883606,2.03342257 C12.2848243,-0.677807524 18.0705204,-0.677807524 22.7665086,2.03342257 C27.4624968,4.74465267 30.3553446,9.75521251 30.3553446,15.1776726 L30.3553446,15.1776726 Z" id="path4582" fill="url(#radialGradient-10)"></path>
                    <path d="M30.3553446,15.1776726 C30.3553446,20.6001328 27.4624968,25.6106926 22.7665086,28.3219227 C18.0705204,31.0331528 12.2848243,31.0331528 7.58883606,28.3219227 C2.89284786,25.6106926 1.77691091e-15,20.6001328 1.77691091e-15,15.1776726 C1.77691091e-15,9.75521251 2.89284786,4.74465267 7.58883606,2.03342257 C12.2848243,-0.677807524 18.0705204,-0.677807524 22.7665086,2.03342257 C27.4624968,4.74465267 30.3553446,9.75521251 30.3553446,15.1776726 L30.3553446,15.1776726 Z" id="path4592" fill="url(#radialGradient-11)"></path>
                    <path d="M30.3553446,15.1776726 C30.3553446,20.6001328 27.4624968,25.6106926 22.7665086,28.3219227 C18.0705204,31.0331528 12.2848243,31.0331528 7.58883606,28.3219227 C2.89284786,25.6106926 1.77691091e-15,20.6001328 1.77691091e-15,15.1776726 C1.77691091e-15,9.75521251 2.89284786,4.74465267 7.58883606,2.03342257 C12.2848243,-0.677807524 18.0705204,-0.677807524 22.7665086,2.03342257 C27.4624968,4.74465267 30.3553446,9.75521251 30.3553446,15.1776726 L30.3553446,15.1776726 Z" id="path4602" fill="url(#radialGradient-12)"></path>
                    <path d="M30.3553446,15.1776726 C30.3553446,20.6001328 27.4624968,25.6106926 22.7665086,28.3219227 C18.0705204,31.0331528 12.2848243,31.0331528 7.58883606,28.3219227 C2.89284786,25.6106926 1.77691091e-15,20.6001328 1.77691091e-15,15.1776726 C1.77691091e-15,9.75521251 2.89284786,4.74465267 7.58883606,2.03342257 C12.2848243,-0.677807524 18.0705204,-0.677807524 22.7665086,2.03342257 C27.4624968,4.74465267 30.3553446,9.75521251 30.3553446,15.1776726 L30.3553446,15.1776726 Z" id="path4630" fill="url(#radialGradient-13)"></path>
                </g>
                <g id="g4879" transform="translate(2.144085, 2.144086)">
                    <g id="g4800">
                        <path d="M27.4818276,13.7409141 C27.4818276,18.6500698 24.8628243,23.1863168 20.6113707,25.6408947 C16.3599172,28.0954726 11.1219104,28.0954726 6.8704568,25.6408947 C2.61900324,23.1863168 0,18.6500698 0,13.7409141 C0,8.83175833 2.61900324,4.29551132 6.8704568,1.84093342 C11.1219104,-0.613644474 16.3599172,-0.613644474 20.6113707,1.84093342 C24.8628243,4.29551132 27.4818276,8.83175833 27.4818276,13.7409141 L27.4818276,13.7409141 Z" id="path3768" stroke="#000000" stroke-width="0.51198087" fill="#000000"></path>
                        <g id="g4785" transform="translate(2.887860, 2.885007)">
                            <path d="M18.9865094,10.8559069 C18.9872732,13.76222 17.4372125,16.448091 14.9203989,17.9014682 C12.4035852,19.3548453 9.3025223,19.3548453 6.78570864,17.9014682 C4.26889497,16.448091 2.71883427,13.76222 2.71959811,10.8559069 C2.71883427,7.94959388 4.26889497,5.26372288 6.78570864,3.81034572 C9.3025223,2.35696856 12.4035852,2.35696856 14.9203989,3.81034572 C17.4372125,5.26372288 18.9872732,7.94959388 18.9865094,10.8559069 Z" id="path3874" fill="url(#radialGradient-14)" opacity="0.38050316"></path>
                            <path d="M21.7061073,10.8559071 C21.7071266,14.7340093 19.6387693,18.3179597 16.2804042,20.2573052 C12.9220391,22.1966506 8.78406825,22.1966506 5.42570312,20.2573052 C2.067338,18.3179597 -0.0010192509,14.7340093 0,10.8559071 C-0.0010192509,6.97780501 2.067338,3.39385456 5.42570312,1.4545091 C8.78406825,-0.484836366 12.9220391,-0.484836366 16.2804042,1.4545091 C19.6387693,3.39385456 21.7071266,6.97780501 21.7061073,10.8559071 Z" id="path3772" fill="url(#radialGradient-15)"></path>
                            <path d="M16.2766201,11.1059851 C16.2766201,13.0436387 15.2428943,14.8341045 13.564837,15.8029313 C11.8867798,16.771758 9.81932807,16.771758 8.14127085,15.8029313 C6.46321363,14.8341045 5.42948779,13.0436387 5.42948779,11.1059851 C5.42948779,9.16833153 6.46321363,7.37786577 8.14127085,6.40903898 C9.81932807,5.44021218 11.8867798,5.44021218 13.564837,6.40903898 C15.2428943,7.37786577 16.2766201,9.16833153 16.2766201,11.1059851 L16.2766201,11.1059851 Z" id="path3860" stroke-opacity="0" stroke="#EF1D00" stroke-width="1.5" fill="url(#radialGradient-16)" stroke-linecap="round" stroke-linejoin="round"></path>
                            <path d="M15.0972878,10.855908 C15.0982427,12.3728633 14.2895056,13.7749969 12.9759428,14.5337506 C11.66238,15.2925043 10.043728,15.2925043 8.73016526,14.5337506 C7.4166025,13.7749969 6.60786537,12.3728633 6.60882029,10.855908 C6.60786537,9.33895268 7.4166025,7.93681909 8.73016526,7.1780654 C10.043728,6.41931171 11.66238,6.41931171 12.9759428,7.1780654 C14.2895056,7.93681909 15.0982427,9.33895268 15.0972878,10.855908 L15.0972878,10.855908 Z" id="path3796" fill="url(#radialGradient-17)"></path>
                            <path d="M11.295133,10.8559073 C11.295133,11.1000612 11.0972072,11.297987 10.8530533,11.297987 C10.6088995,11.297987 10.4109737,11.1000612 10.4109737,10.8559073 C10.4109737,10.6117534 10.6088995,10.4138276 10.8530533,10.4138276 C11.0972072,10.4138276 11.295133,10.6117534 11.295133,10.8559073 Z" id="path3818" fill="#F4F846"></path>
                        </g>
                    </g>
                    <g id="g4859" transform="translate(2.676545, 1.018197)">
                        <g id="g4393" transform="translate(-0.000000, 0.976155)">
                            <path d="M7.33852202,0.388127562 L7.60376973,1.427014 C9.52445363,0.69172723 13.3530449,0.947790824 15.3401621,1.89119749 L15.5390978,0.852311052 C13.0381443,-0.233159915 9.11363553,-0.15684737 7.33852202,0.388127562 Z" id="path4007" fill="#C9C9BF"></path>
                            <path d="M2.38723063,2.35538098 C0.756570911,4.48737327 0.213905449,5.82110415 8.88455455e-16,7.01932153 C0.407969712,6.8239256 0.601046166,6.44820469 0.792892237,6.11143468 C1.557797,4.92530733 2.33890681,3.7260959 3.42611707,2.93008519 L2.38723063,2.35538098 Z" id="path4009" fill="url(#linearGradient-18)"></path>
                            <polygon id="path4011" fill="url(#linearGradient-19)" opacity="0.53773588" points="2.38723063 5.91412191 3.80188424 4.87523547 4.99550018 6.04674576 3.64715724 6.62144996"></polygon>
                            <path d="M8.95211266,2.88587765 C10.1265326,2.72359205 11.344111,2.77709873 12.5771643,2.90798079 C12.6483515,3.16098593 12.675066,3.45846369 12.687685,3.77003585 C11.5309105,3.68412781 10.3741348,3.60323383 9.21736037,3.7479327 C9.1642188,3.49585535 9.06365119,3.19635071 8.95211266,2.88587765 L8.95211266,2.88587765 Z" id="path4013" fill="#FFFFFF" opacity="0.53773588"></path>
                            <path d="M17.4179362,5.09627564 L16.7769213,5.91412191 C17.1146729,6.0335579 17.551868,6.17785539 18.125263,6.35620225 C18.2735305,6.17846183 18.4780242,5.94449638 18.7441747,5.6488742 C18.376999,5.43970648 17.9611118,5.24677632 17.4179362,5.09627564 L17.4179362,5.09627564 Z" id="path4015" fill="#816461"></path>
                            <polygon id="path4017" fill="#F15E4F" points="6.5206745 8.32345568 7.16168938 7.83716779 7.44904148 8.27924814 6.9627536 8.6771197"></polygon>
                            <path d="M9.92468718,6.48882611 C10.6515863,6.37116692 11.309439,6.46064607 11.9803569,6.51092925 L11.9361494,6.90880081 C11.2803974,6.88861952 10.6246467,6.83951671 9.96889471,6.93090521 L9.92468718,6.48882611 Z" id="path4019" fill="#EC4E3E"></path>
                            <path d="M10.0352066,8.10241675 C10.9513636,7.91045315 11.7633843,7.97677258 12.4445404,8.36766446 L12.621373,8.01400043 C11.6558057,7.57748682 10.5753851,7.60559434 9.94679157,7.81506465 L10.0352066,8.10241675 Z" id="path4021" fill="#E66044"></path>
                            <polygon id="path4023" fill="url(#linearGradient-20)" points="15.0970187 8.54449585 15.3622665 8.16872868 14.7433547 7.88137658 14.4117951 8.16872868"></polygon>
                            <path d="M14.478107,9.53917476 C14.1935408,9.09727822 14.1371519,8.86720148 13.8812997,8.65501531 L13.6823639,8.78763917 C13.9911552,9.06812163 14.2429924,9.39131865 14.4338995,9.76021493 L14.478107,9.53917476 Z" id="path4025" fill="#F74639"></path>
                            <path d="M11.6266941,8.87605549 C11.2656628,8.78143348 10.9046302,8.80239752 10.5435989,8.85395109 L10.5435989,8.61080778 C10.8814893,8.50880097 11.237259,8.51406761 11.6045897,8.58870339 L11.6266941,8.87605549 Z" id="path4027" fill="#EF4D2B"></path>
                            <path d="M8.64265617,8.76553602 C8.26338916,9.11051985 8.01255219,9.50366368 7.86901744,9.93704632 L7.73639358,9.80442247 C7.88359198,9.33373195 8.11115044,8.88488699 8.48792792,8.50028832 L8.64265617,8.76553602 Z" id="path4029" fill="#EB5241"></path>
                            <polygon id="path4031" fill="#F7432E" points="8.88579949 9.76021493 9.01842459 9.45075844 8.68686371 9.31813458 8.53213671 9.62759108"></polygon>
                            <polygon id="path4033" fill="#F7432E" points="13.4392193 9.73811054 13.5939476 9.49496722 13.3286999 9.34023898 13.1076597 9.51707036"></polygon>
                            <path d="M19.0132149,3.15491779 L19.6100222,2.64652552 C20.6661003,3.20813189 21.4231851,4.31789418 22.1298767,5.52004278 L21.8204202,5.82949927 C20.9066228,4.8940976 19.9851905,3.97396443 19.0132149,3.15491779 L19.0132149,3.15491779 Z" id="path4035" fill="url(#linearGradient-21)"></path>
                        </g>
                        <path d="M11.0643688,0 C9.54452364,0 8.08607012,0.269232201 6.7348938,0.758048872 L7.02795393,0.777586214 C8.29660202,0.353340802 9.65303747,0.250077978 11.0643688,0.250077978 C12.9427645,0.250077978 14.7267345,0.531345807 16.3316362,1.2621123 L16.6989383,1.31290939 C15.0005112,0.472567354 13.0876422,0 11.0643688,0 Z" id="path4462" fill="#35373C" opacity="0.93081761"></path>
                        <path d="M1.27616043,4.59518285 C0.812179251,5.15342317 0.393935586,5.75195005 0.0296780041,6.38480339 L0.0531228146,6.38871085 C0.208565034,6.13227227 0.49752076,5.8816046 0.66978485,5.63726779 C0.886174824,5.33034321 1.11573628,4.90836951 1.35821726,4.62253513 L1.27616043,4.59518285 Z" id="path4469" fill="#BAB7B2" opacity="0.39308178"></path>
                    </g>
                </g>
            </g>
        </g>
    </g>
</svg>